<?xml version="1.0" standalone="no"?><svg xmlns="http://www.w3.org/2000/svg" id="canvas" width="295" height="195"><rect x="0" y="0" width="295" height="195" fill="white"/><g  text-anchor="middle" dominant-baseline="central" font-family="Arial, Helvetica, sans-serif" font-size="22.5px" style="pointer-events: none;"><text x="123.5" y="23.5">5</text><text x="98.5" y="23.5">9</text><text x="73.5" y="23.5">3</text><text x="48.5" y="23.5">1</text><text x="148.5" y="23.5">:</text><text x="173.5" y="23.5" >6</text><text x="198.5" y="23.5">=</text><text x="273.5" y="23.5">2</text><text x="248.5" y="23.5">3</text><text x="223.5" y="23.5">2</text><text x="73.5" y="48.5">2</text><text x="48.5" y="48.5">1</text><text x="23.5" y="48.5">-</text><text x="98.5" y="73.5">9</text><text x="73.5" y="73.5">1</text><text x="98.5" y="98.5">8</text><text x="73.5" y="98.5">1</text><text x="48.5" y="98.5">-</text><text x="123.5" y="123.5">5</text><text x="98.5" y="123.5">1</text><text x="123.5" y="148.5">2</text><text x="98.5" y="148.5">1</text><text x="73.5" y="148.5">-</text><text x="123.5" y="173.5">3</text></g><g style="stroke:#000000;+stroke-width:1"><line x1="10" x2="85" y1="60" y2="60"/><line x1="35" x2="110" y1="110" y2="110"/><line x1="60" x2="135" y1="160" y2="160"/></g></svg>