<?xml version="1.0" encoding="UTF-8" standalone="no"?>
<!DOCTYPE svg PUBLIC "-//W3C//DTD SVG 20010904//EN"
              "http://www.w3.org/TR/2001/REC-SVG-20010904/DTD/svg10.dtd">

<svg xmlns="http://www.w3.org/2000/svg"
     width="1.94667in" height="0.266667in"
     viewBox="0 0 584 80">
  <path id="Auswahl"
        fill="white" stroke="white" stroke-width="2"
        d="M 67.00,14.00
           C 67.00,14.00 69.00,14.00 69.00,14.00
             69.00,14.00 70.00,30.00 70.00,30.00
             82.29,22.63 91.81,25.31 92.00,41.00
             92.04,44.37 92.65,57.22 90.98,59.41
             90.05,60.62 89.23,60.57 88.00,61.00
             88.00,55.64 88.68,39.05 86.99,35.02
             83.73,27.19 74.89,27.95 71.31,35.02
             68.51,40.56 71.16,53.38 69.00,61.00
             69.00,61.00 67.00,61.00 67.00,61.00
             67.00,61.00 66.00,38.00 66.00,38.00
             66.00,38.00 67.00,14.00 67.00,14.00 Z
           M 138.00,14.00
           C 138.00,14.00 141.00,14.00 141.00,14.00
             141.00,14.00 141.00,21.00 141.00,21.00
             141.00,21.00 138.00,21.00 138.00,21.00
             138.00,21.00 138.00,14.00 138.00,14.00 Z
           M 159.00,26.00
           C 159.04,22.71 158.83,19.87 161.31,17.30
             164.71,13.80 171.03,12.39 173.00,18.00
             165.94,18.09 163.88,18.78 162.00,26.00
             166.81,26.00 170.20,24.87 172.00,30.00
             172.00,30.00 162.00,30.00 162.00,30.00
             162.00,30.00 162.00,61.00 162.00,61.00
             162.00,61.00 159.00,61.00 159.00,61.00
             159.00,61.00 159.00,39.00 159.00,39.00
             159.00,39.00 157.98,32.31 157.98,32.31
             157.98,32.31 153.00,30.00 153.00,30.00
             154.34,26.17 155.09,26.33 159.00,26.00 Z
           M 204.00,18.00
           C 205.99,12.32 212.31,13.64 214.01,15.74
             215.17,17.18 214.99,20.22 215.00,22.00
             215.00,22.00 215.00,57.00 215.00,57.00
             215.00,57.00 222.00,57.00 222.00,57.00
             222.00,57.00 222.00,61.00 222.00,61.00
             219.35,61.00 213.78,61.48 211.99,59.26
             210.75,57.72 211.00,53.94 211.00,52.00
             211.00,52.00 211.00,18.00 211.00,18.00
             211.00,18.00 204.00,18.00 204.00,18.00 Z
           M 236.00,14.00
           C 236.00,14.00 239.00,14.00 239.00,14.00
             239.00,14.00 239.00,21.00 239.00,21.00
             239.00,21.00 236.00,21.00 236.00,21.00
             236.00,21.00 236.00,14.00 236.00,14.00 Z
           M 286.00,14.00
           C 286.00,14.00 288.00,14.00 288.00,14.00
             288.00,14.00 289.00,30.00 289.00,30.00
             301.29,22.63 310.81,25.31 311.00,41.00
             311.04,44.37 311.65,57.22 309.98,59.41
             309.05,60.62 308.23,60.57 307.00,61.00
             307.00,55.64 307.68,39.05 305.99,35.02
             302.73,27.19 293.89,27.95 290.31,35.02
             287.51,40.56 290.16,53.38 288.00,61.00
             288.00,61.00 286.00,61.00 286.00,61.00
             286.00,61.00 285.00,38.00 285.00,38.00
             285.00,38.00 286.00,14.00 286.00,14.00 Z
           M 445.00,14.00
           C 445.00,14.00 447.00,14.00 447.00,14.00
             447.00,14.00 448.00,30.00 448.00,30.00
             460.29,22.63 469.81,25.31 470.00,41.00
             470.04,44.37 470.65,57.22 468.98,59.41
             468.05,60.62 467.23,60.57 466.00,61.00
             466.00,55.64 466.68,39.05 464.99,35.02
             461.73,27.19 452.89,27.95 449.31,35.02
             446.51,40.56 449.16,53.38 447.00,61.00
             447.00,61.00 445.00,61.00 445.00,61.00
             445.00,61.00 444.00,38.00 444.00,38.00
             444.00,38.00 445.00,14.00 445.00,14.00 Z
           M 183.00,19.00
           C 187.21,20.48 186.85,21.83 187.00,26.00
             192.02,26.00 197.07,24.49 199.00,30.00
             199.00,30.00 187.00,30.00 187.00,30.00
             187.00,35.94 185.30,51.72 190.15,55.26
             192.72,57.15 195.98,56.97 199.00,57.00
             196.47,64.21 186.38,59.82 184.17,55.89
             182.21,52.39 183.00,35.02 183.00,30.00
             183.00,30.00 178.00,30.00 178.00,30.00
             179.20,26.58 179.46,26.62 183.00,26.00
             183.00,26.00 183.00,19.00 183.00,19.00 Z
           M 4.00,57.00
           C 9.04,56.09 8.75,57.43 13.00,57.75
             16.77,58.03 22.17,55.62 20.60,51.04
             18.56,45.08 8.58,45.44 5.18,38.96
             4.07,36.84 3.94,34.30 4.65,32.04
             7.25,23.80 17.85,25.44 24.00,28.00
             24.00,28.00 24.00,30.00 24.00,30.00
             24.00,30.00 23.00,31.00 23.00,31.00
             20.14,30.36 15.82,28.80 13.04,29.47
             8.60,30.53 7.00,35.12 10.32,38.61
             13.93,42.41 21.96,42.79 24.67,48.10
             27.13,52.92 23.99,58.94 18.98,60.49
             14.29,61.94 8.44,60.67 4.00,59.00
             4.00,59.00 4.00,57.00 4.00,57.00 Z
           M 55.00,56.00
           C 52.10,64.26 39.01,61.52 35.45,54.96
             32.02,48.64 32.10,34.68 37.39,29.39
             41.88,24.91 52.57,24.08 55.00,31.00
             52.06,30.70 47.35,29.21 45.00,29.67
             35.35,31.57 35.02,49.03 40.42,54.72
             44.81,59.36 49.71,56.81 55.00,56.00 Z
           M 101.00,26.00
           C 107.00,26.02 109.43,25.23 110.00,32.00
             110.00,32.00 123.00,26.00 123.00,26.00
             123.00,26.00 123.00,30.00 123.00,30.00
             107.00,34.11 110.00,43.94 110.00,57.00
             110.00,57.00 119.00,57.00 119.00,57.00
             119.00,57.00 117.41,59.98 117.41,59.98
             117.41,59.98 101.00,61.00 101.00,61.00
             101.00,61.00 101.00,57.00 101.00,57.00
             101.00,57.00 107.00,57.00 107.00,57.00
             107.00,57.00 107.00,30.00 107.00,30.00
             107.00,30.00 101.00,30.00 101.00,30.00
             101.00,30.00 101.00,26.00 101.00,26.00 Z
           M 130.00,30.00
           C 132.18,23.79 139.84,25.56 141.40,29.15
             142.12,30.79 142.00,34.15 142.00,36.00
             142.01,42.35 142.69,51.06 141.00,57.00
             141.00,57.00 149.00,57.00 149.00,57.00
             146.88,63.06 139.44,61.65 138.16,57.85
             138.16,57.85 138.16,30.00 138.16,30.00
             138.16,30.00 130.00,30.00 130.00,30.00 Z
           M 228.00,30.00
           C 230.12,23.94 237.56,25.35 238.84,29.15
             238.84,29.15 238.84,57.00 238.84,57.00
             238.84,57.00 247.00,57.00 247.00,57.00
             244.88,63.06 237.44,61.65 236.16,57.85
             236.16,57.85 236.16,30.00 236.16,30.00
             236.16,30.00 228.00,30.00 228.00,30.00 Z
           M 274.00,56.00
           C 271.57,62.92 260.88,62.09 256.39,57.61
             251.10,52.32 251.02,38.36 254.45,32.04
             258.01,25.48 271.10,22.74 274.00,31.00
             271.06,30.70 266.35,29.21 264.00,29.67
             254.35,31.57 254.02,49.03 259.42,54.72
             263.81,59.36 268.71,56.81 274.00,56.00 Z
           M 348.00,26.00
           C 354.00,26.02 356.43,25.23 357.00,32.00
             357.00,32.00 370.00,26.00 370.00,26.00
             370.00,26.00 370.00,30.00 370.00,30.00
             354.00,34.11 357.00,43.94 357.00,57.00
             357.00,57.00 366.00,57.00 366.00,57.00
             366.00,57.00 364.41,59.98 364.41,59.98
             364.41,59.98 348.00,61.00 348.00,61.00
             348.00,61.00 348.00,57.00 348.00,57.00
             348.00,57.00 354.00,57.00 354.00,57.00
             354.00,57.00 354.00,30.00 354.00,30.00
             354.00,30.00 348.00,30.00 348.00,30.00
             348.00,30.00 348.00,26.00 348.00,26.00 Z
           M 399.00,57.00
           C 396.09,65.32 380.46,59.88 377.61,52.00
             375.56,46.32 375.53,37.42 378.45,32.04
             382.01,25.48 392.09,24.01 397.79,28.65
             401.03,31.29 404.31,40.89 400.40,43.98
             399.06,45.04 396.62,44.97 395.00,45.00
             395.00,45.00 380.00,45.00 380.00,45.00
             381.98,57.58 388.40,57.00 399.00,57.00 Z
           M 433.00,56.00
           C 430.57,62.92 419.88,62.09 415.39,57.61
             410.10,52.32 410.02,38.36 413.45,32.04
             417.01,25.48 430.10,22.74 433.00,31.00
             430.06,30.70 425.35,29.21 423.00,29.67
             413.35,31.57 413.02,49.03 418.42,54.72
             422.81,59.36 427.71,56.81 433.00,56.00 Z
           M 482.00,26.00
           C 482.00,26.00 484.00,26.00 484.00,26.00
             484.00,26.00 485.00,30.00 485.00,30.00
             488.15,28.11 490.22,26.47 494.00,26.11
             504.77,25.08 506.96,33.23 507.00,42.00
             507.00,42.00 507.00,60.00 507.00,60.00
             507.00,60.00 503.00,60.00 503.00,60.00
             503.00,52.95 504.80,36.30 499.61,31.43
             495.13,27.24 488.79,30.13 486.31,35.02
             484.20,39.20 485.00,54.55 485.00,60.00
             485.00,60.00 481.00,60.00 481.00,60.00
             481.00,60.00 482.00,26.00 482.00,26.00 Z
           M 539.00,57.00
           C 536.09,65.32 520.46,59.88 517.61,52.00
             515.56,46.32 515.53,37.42 518.45,32.04
             522.01,25.48 532.09,24.01 537.79,28.65
             541.03,31.29 544.31,40.89 540.40,43.98
             539.06,45.04 536.62,44.97 535.00,45.00
             535.00,45.00 520.00,45.00 520.00,45.00
             521.98,57.58 528.40,57.00 539.00,57.00 Z
           M 554.00,26.00
           C 554.00,26.00 556.00,26.00 556.00,26.00
             556.00,26.00 557.00,30.00 557.00,30.00
             560.15,28.11 562.22,26.47 566.00,26.11
             576.77,25.08 578.96,33.23 579.00,42.00
             579.00,42.00 579.00,60.00 579.00,60.00
             579.00,60.00 575.00,60.00 575.00,60.00
             575.00,52.95 576.80,36.30 571.61,31.43
             567.13,27.24 560.79,30.13 558.31,35.02
             556.20,39.20 557.00,54.55 557.00,60.00
             557.00,60.00 553.00,60.00 553.00,60.00
             553.00,60.00 554.00,26.00 554.00,26.00 Z
           M 399.00,41.00
           C 397.62,25.87 385.73,27.81 382.09,33.21
             380.52,35.54 380.25,38.30 380.00,41.00
             380.00,41.00 399.00,41.00 399.00,41.00 Z
           M 539.00,41.00
           C 537.62,25.87 525.73,27.81 522.09,33.21
             520.52,35.54 520.25,38.30 520.00,41.00
             520.00,41.00 539.00,41.00 539.00,41.00 Z
           M 323.00,40.00
           C 323.00,40.00 339.00,40.00 339.00,40.00
             339.00,40.00 339.00,44.00 339.00,44.00
             339.00,44.00 324.59,42.98 324.59,42.98
             324.59,42.98 323.00,40.00 323.00,40.00 Z" />
</svg>
